<?xml version="1.0" standalone="no"?>
<!DOCTYPE svg PUBLIC "-//W3C//DTD SVG 20010904//EN"
 "http://www.w3.org/TR/2001/REC-SVG-20010904/DTD/svg10.dtd">
<svg version="1.0" xmlns="http://www.w3.org/2000/svg"
 width="500.000000pt" height="500.000000pt" viewBox="0 0 500.000000 500.000000"
 preserveAspectRatio="xMidYMid meet">
<metadata>
Created by potrace 1.14, written by Peter Selinger 2001-2017
</metadata>
<g transform="translate(0.000000,500.000000) scale(0.100000,-0.100000)"
fill="#000000" stroke="none">
<path d="M1957 4273 c-4 -3 -7 -17 -7 -29 0 -18 -14 -30 -74 -59 -68 -34 -78
-36 -137 -31 -126 12 -131 12 -142 -6 -9 -13 -7 -21 5 -35 8 -10 19 -31 22
-48 4 -16 24 -50 44 -74 l36 -44 -45 -42 c-24 -23 -66 -50 -92 -60 -60 -23
-85 -12 -113 48 -16 35 -24 43 -52 45 -21 2 -43 -4 -63 -19 -31 -22 -49 -21
-116 7 -6 3 -20 -7 -29 -21 -17 -26 -17 -28 1 -60 l18 -34 -37 -49 c-48 -66
-46 -92 12 -154 20 -22 27 -41 30 -88 4 -54 -11 -201 -25 -235 -2 -8 -27 -21
-53 -30 -27 -9 -54 -23 -60 -31 -7 -7 -16 -14 -21 -14 -20 0 -85 -51 -102 -80
-12 -20 -19 -54 -20 -106 -2 -58 -7 -79 -20 -89 -30 -22 -19 -73 28 -125 12
-14 27 -40 33 -58 16 -46 48 -88 82 -109 17 -9 33 -25 36 -35 7 -22 24 -24 24
-3 0 8 5 15 10 15 6 0 10 -7 10 -15 0 -9 7 -30 16 -47 15 -29 18 -30 62 -23
26 3 55 8 64 11 15 5 16 2 6 -26 -7 -20 -7 -35 -1 -41 17 -17 186 -12 243 7
48 16 53 16 61 1 5 -9 29 -37 53 -62 39 -40 48 -45 88 -45 37 0 49 -5 74 -31
40 -43 69 -53 99 -33 22 15 23 14 30 -16 4 -18 30 -56 58 -86 40 -42 63 -58
103 -70 51 -15 54 -17 73 -70 12 -30 21 -60 21 -68 0 -7 14 -25 30 -41 l31
-29 -7 -107 c-10 -157 -1 -208 47 -267 34 -42 50 -52 114 -73 l75 -24 0 -38
c0 -44 32 -112 60 -129 17 -11 20 -24 20 -79 0 -61 -2 -67 -25 -77 -50 -23
-113 -78 -141 -122 -52 -81 -133 -214 -150 -247 -23 -42 -13 -67 24 -58 78 19
91 18 141 -14 73 -47 79 -58 39 -66 -51 -10 -86 -25 -92 -41 -7 -19 6 -18 99
6 74 19 80 19 104 3 42 -27 50 -45 51 -109 0 -46 4 -65 18 -77 27 -24 42 -21
42 8 0 25 21 76 42 102 7 9 19 5 45 -13 20 -13 40 -24 44 -24 5 0 9 -15 9 -34
0 -26 -7 -41 -30 -59 -32 -27 -37 -37 -19 -37 13 0 89 62 89 73 0 5 -4 5 -10
2 -40 -25 58 139 210 351 87 122 88 123 79 166 -11 57 -11 163 0 211 11 46 58
116 86 128 172 70 234 90 306 98 80 9 83 10 121 53 145 162 236 598 183 875
-18 96 -18 93 0 93 8 0 15 8 15 18 0 9 37 61 83 114 167 196 170 205 171 462
l0 148 -27 24 c-16 13 -37 24 -48 24 -11 0 -22 8 -25 18 -24 82 -78 137 -127
130 -16 -2 -23 3 -25 20 -2 12 -8 22 -13 22 -6 0 -20 10 -33 23 -85 82 -85 82
-159 90 -40 5 -124 11 -188 13 -109 5 -117 7 -129 28 -13 25 -93 86 -112 86
-6 0 -53 20 -104 45 -50 25 -100 45 -111 45 -31 0 -42 14 -62 80 -20 64 -112
218 -164 274 -15 16 -27 39 -27 50 0 30 -28 66 -51 66 -33 0 -49 -53 -38 -124
5 -32 7 -61 4 -65 -4 -3 -24 -11 -45 -17 -30 -9 -50 -8 -94 3 -66 17 -117 7
-262 -51 -48 -20 -89 -34 -92 -32 -2 2 -7 53 -10 113 l-7 108 -47 -2 c-51 -3
-56 2 -61 67 -4 49 -58 105 -80 83z m-14 -181 c-38 -39 -59 -52 -100 -61 -58
-14 -70 -31 -53 -75 5 -15 10 -45 10 -67 0 -32 -4 -41 -23 -48 -13 -5 -36 -20
-53 -34 -28 -23 -129 -77 -146 -77 -4 0 -4 9 0 20 7 18 62 67 125 112 26 18
67 92 67 120 0 9 -16 28 -35 42 -19 15 -40 37 -46 49 -9 17 -9 20 1 10 8 -7
22 -8 43 -2 18 5 44 9 59 9 25 0 68 16 158 59 52 25 50 2 -7 -57z m467 -197
c-24 -25 -115 -65 -150 -65 -39 0 -29 20 22 46 52 27 139 55 147 47 3 -1 -6
-14 -19 -28z m-1018 -54 c-5 -3 -12 -17 -13 -30 -5 -33 -23 -37 -36 -9 -16 35
-13 42 21 53 30 10 50 0 28 -14z m-185 -153 c-3 -7 -5 -2 -5 12 0 14 2 19 5
13 2 -7 2 -19 0 -25z m1863 -75 c38 -16 30 -28 -23 -35 -24 -2 -31 2 -43 30
-13 32 -13 33 9 26 12 -3 38 -13 57 -21z m-1770 -23 c29 -15 33 -66 20 -216
-17 -187 -16 -184 -75 -201 -28 -8 -59 -23 -71 -34 -11 -10 -25 -19 -32 -19
-21 0 -82 -62 -82 -84 0 -12 -9 -39 -20 -61 -29 -58 -26 -112 10 -155 20 -23
30 -45 30 -67 0 -63 -43 -25 -60 52 -6 28 -19 64 -29 80 -11 20 -15 38 -10 55
4 14 7 51 8 84 1 53 4 62 36 91 44 42 115 76 171 83 35 4 45 9 48 26 11 55 27
325 21 349 -8 29 3 34 35 17z m2105 -167 c-25 -26 -39 -33 -46 -26 -17 17 -6
47 21 54 57 16 62 10 25 -28z m151 26 c15 -24 -14 -29 -57 -10 l-44 20 47 0
c26 1 50 -4 54 -10z m-387 -23 c15 -14 41 -35 58 -48 120 -86 283 -218 283
-230 0 -3 -25 -23 -56 -44 -67 -44 -180 -128 -212 -157 -27 -25 -132 -34 -132
-11 0 9 13 14 38 14 54 0 112 38 142 90 21 38 25 58 24 125 0 88 -9 113 -60
162 -50 48 -91 66 -137 60 -85 -11 -167 -121 -167 -221 0 -60 29 -128 72 -172
36 -39 37 -79 0 -44 -12 11 -52 44 -90 72 -37 28 -69 54 -72 58 -3 4 -24 19
-47 33 -53 33 -60 45 -37 63 103 77 171 130 179 139 25 28 170 134 184 135 3
0 16 -11 30 -24z m26 -134 c109 -76 65 -272 -60 -272 -38 0 -48 5 -79 41 -67
79 -53 186 31 239 39 26 62 24 108 -8z m600 -35 c74 -80 71 -137 -10 -217 -30
-30 -55 -60 -55 -67 0 -12 -14 -61 -67 -226 -14 -43 -33 -110 -43 -150 -16
-64 -48 -180 -96 -347 -9 -30 -24 -75 -34 -98 -17 -42 -16 -46 1 -82 24 -50
24 -94 -1 -148 -25 -56 -72 -78 -129 -61 -54 16 -76 65 -68 150 l5 61 -61 84
c-34 47 -81 111 -105 142 -24 31 -51 70 -60 86 -9 16 -32 47 -51 68 -27 30
-36 36 -47 27 -20 -17 -105 -5 -121 17 -7 9 -20 37 -29 61 -15 38 -15 49 -4
83 7 22 19 45 27 51 22 19 15 36 -24 53 -21 9 -85 41 -143 72 -58 31 -141 75
-185 99 -44 23 -106 57 -139 75 l-58 33 -24 -30 c-32 -42 -75 -58 -115 -44
-30 10 -32 10 -172 -131 -193 -194 -297 -309 -297 -331 0 -15 -3 -16 -20 -7
-14 7 -20 21 -20 45 0 31 19 54 214 251 l214 217 -5 81 c-6 81 -5 83 26 118
46 52 80 64 126 42 44 -21 65 -50 72 -103 6 -45 17 -53 172 -133 42 -21 90
-47 106 -57 69 -40 324 -169 368 -186 26 -10 57 -29 67 -43 29 -36 43 -96 32
-136 -10 -36 -13 -32 90 -182 27 -38 64 -89 83 -114 19 -25 53 -71 76 -102 37
-52 43 -56 66 -47 13 5 35 9 48 9 14 0 29 8 34 19 11 20 94 306 156 536 20 77
48 175 61 218 29 94 29 103 5 116 -26 14 -61 90 -61 132 0 42 37 109 70 127
39 20 90 7 125 -31z m-2268 -429 c-3 -8 -6 -5 -6 6 -1 11 2 17 5 13 3 -3 4
-12 1 -19z m62 -130 c7 -24 17 -51 22 -60 16 -31 -9 -20 -36 17 -21 27 -25 41
-20 65 8 38 18 32 34 -22z m451 -356 c1 -20 7 -54 14 -74 15 -42 9 -47 -22
-20 -25 20 -28 42 -18 100 9 50 26 46 26 -6z m273 -352 c41 -45 39 -31 41
-262 1 -126 0 -135 -16 -127 -10 5 -25 24 -34 41 -14 27 -15 53 -9 179 l7 148
-31 31 c-17 18 -31 36 -31 41 0 16 34 -7 73 -51z m489 -321 c25 -13 48 -68 48
-114 0 -49 -45 -95 -92 -95 -37 0 -80 36 -93 78 -17 58 34 142 87 142 16 0 38
-5 50 -11z m-226 -239 c19 -41 22 -80 4 -80 -18 0 -43 44 -48 86 -6 60 14 57
44 -6z m91 -246 l3 -109 -50 -24 c-54 -26 -116 -88 -192 -193 -43 -58 -51 -64
-78 -60 -19 3 -27 8 -23 16 26 45 99 150 135 193 30 38 57 59 95 75 l53 22 0
78 c0 63 3 78 15 78 18 0 19 14 3 43 -11 21 -10 21 13 6 23 -15 24 -23 26
-125z m4 -625 l-10 -24 0 26 c-1 14 2 29 6 33 12 12 14 -9 4 -35z"/>
<path d="M3685 3193 c-31 -30 -5 -113 36 -113 39 0 67 88 37 118 -17 17 -54
15 -73 -5z"/>
<path d="M2137 3152 c-30 -32 -35 -69 -11 -98 13 -16 15 -16 10 -1 -3 9 -1 17
4 17 6 0 10 -6 10 -14 0 -15 21 -26 49 -26 19 0 41 38 41 71 0 11 -7 33 -15
49 -20 39 -53 39 -88 2z m25 -24 c-7 -7 -12 -8 -12 -2 0 14 12 26 19 19 2 -3
-1 -11 -7 -17z"/>
<path d="M2892 2658 c-19 -19 -15 -82 6 -101 10 -10 24 -17 30 -17 20 0 52 43
52 70 0 47 -58 78 -88 48z"/>
<path d="M3356 2048 c-22 -25 -24 -60 -6 -94 18 -32 72 -34 94 -2 16 23 22 93
9 101 -5 2 -24 7 -43 11 -29 5 -39 2 -54 -16z"/>
<path d="M2750 1628 c0 -8 -7 -21 -15 -28 -23 -19 -18 -56 12 -80 29 -23 39
-18 52 26 7 25 4 35 -20 64 -19 22 -29 29 -29 18z"/>
</g>
</svg>
